<?xml version="1.0" standalone="no"?>
<!DOCTYPE svg PUBLIC "-//W3C//DTD SVG 20010904//EN"
 "http://www.w3.org/TR/2001/REC-SVG-20010904/DTD/svg10.dtd">
<svg version="1.0" xmlns="http://www.w3.org/2000/svg"
 width="640.000000pt" height="270.000000pt" viewBox="0 0 640.000000 270.000000"
 preserveAspectRatio="xMidYMid meet">

<g transform="translate(0.000000,270.000000) scale(0.100000,-0.100000)"
fill="#000000" stroke="none">
<path d="M935 2531 c-40 -24 -85 -78 -85 -101 0 -11 14 -35 31 -54 17 -20 28
-39 25 -44 -16 -26 -182 -67 -357 -88 -73 -9 -136 -18 -139 -21 -3 -3 60 -3
140 0 160 5 277 29 340 71 27 17 39 21 52 13 12 -8 23 -6 43 7 25 17 26 19 10
36 -16 18 -16 21 3 47 31 44 47 106 33 132 -15 26 -55 28 -96 2z m26 -41 c20
-11 26 -63 10 -89 -7 -10 -16 -4 -40 29 -24 33 -28 46 -20 56 14 17 24 17 50
4z"/>
<path d="M1726 2527 c-9 -12 -20 -47 -26 -77 -23 -115 -19 -111 -47 -55 -42
82 -92 126 -120 103 -33 -27 9 -98 58 -98 23 0 44 -31 65 -92 26 -78 35 -67
54 67 7 44 16 88 21 98 12 21 32 22 49 2 16 -19 30 -10 30 20 0 24 -33 55 -57
55 -7 0 -19 -10 -27 -23z"/>
<path d="M2686 2509 c-152 -67 -246 -135 -246 -177 0 -5 67 25 149 67 111 56
154 84 171 109 13 18 21 34 19 37 -3 2 -44 -14 -93 -36z"/>
<path d="M1242 2478 c-39 -126 -35 -207 10 -216 20 -4 48 24 48 49 0 17 -3 18
-20 7 -45 -28 -55 35 -25 152 21 83 12 89 -13 8z"/>
<path d="M3600 2521 c-15 -29 -12 -46 11 -67 38 -34 63 -95 63 -156 1 -32 4
-58 8 -58 14 0 30 85 24 128 -10 71 -61 172 -87 172 -5 0 -13 -9 -19 -19z"/>
<path d="M4385 2498 c-135 -63 -202 -105 -230 -145 -13 -20 -23 -38 -22 -40 2
-1 71 32 154 74 116 60 155 85 172 111 12 19 21 36 19 37 -2 2 -44 -15 -93
-37z"/>
<path d="M5203 2528 c-16 -20 -42 -105 -58 -192 -11 -59 -13 -88 -5 -117 11
-41 33 -69 55 -69 28 0 66 57 64 98 0 14 -3 13 -16 -5 -25 -36 -59 -30 -73 12
-12 37 -1 112 35 238 15 49 14 55 -2 35z"/>
<path d="M5731 2514 c-6 -15 -17 -60 -23 -100 l-12 -74 -28 52 c-37 68 -76
108 -105 108 -20 0 -23 -5 -23 -34 0 -36 28 -66 61 -66 23 0 47 -30 65 -83 15
-43 30 -65 39 -55 2 2 10 47 18 101 18 115 29 135 63 112 31 -20 34 -19 34 13
0 35 -16 52 -50 52 -19 0 -30 -8 -39 -26z"/>
<path d="M1991 2458 c-23 -78 -27 -157 -11 -189 16 -28 47 -24 65 11 21 41 19
57 -5 35 -50 -45 -65 25 -31 148 25 91 10 86 -18 -5z"/>
<path d="M2884 2460 c-19 -50 -24 -73 -16 -82 5 -7 18 -62 27 -123 9 -60 45
-288 80 -505 99 -611 108 -688 79 -729 -36 -51 -145 -76 -203 -46 -35 18 -64
75 -55 110 11 46 -14 27 -63 -47 -62 -95 -108 -121 -204 -116 -81 4 -116 28
-181 119 -54 78 -67 86 -106 70 -66 -28 -120 -99 -202 -267 -77 -158 -124
-224 -158 -224 -35 0 -80 39 -106 92 -36 73 -42 152 -22 274 16 91 16 107 2
166 -8 36 -29 100 -46 142 -16 42 -30 79 -30 81 0 3 11 3 25 -1 39 -10 32 17
-23 83 -67 80 -79 89 -86 66 -17 -53 -25 -125 -16 -141 25 -44 123 -331 124
-361 1 -30 -5 -39 -48 -72 -122 -93 -397 -230 -544 -271 -106 -29 -245 -29
-323 1 -160 61 -221 235 -169 479 11 50 16 55 88 109 104 76 215 191 246 255
14 29 29 81 32 114 l7 62 66 26 c36 14 104 48 150 76 l83 50 46 -40 c95 -84
208 -130 318 -130 77 0 186 31 381 108 171 68 252 96 259 89 8 -8 46 -248 41
-261 -3 -6 -77 -40 -165 -76 -89 -35 -159 -66 -157 -69 2 -2 79 2 170 9 91 7
168 10 171 7 9 -9 33 -211 35 -287 0 -36 4 -76 9 -90 7 -25 7 -25 23 10 25 59
39 184 32 286 -4 52 -8 97 -8 101 0 5 37 29 83 54 115 63 231 152 267 202 42
58 57 110 57 197 1 69 -2 82 -44 165 -25 50 -46 93 -48 96 -1 4 9 4 24 1 21
-4 25 -2 19 9 -19 31 -118 138 -125 134 -4 -2 -13 -31 -20 -63 l-12 -59 81
-168 c46 -95 79 -176 76 -185 -8 -26 -151 -125 -270 -187 -58 -30 -107 -53
-109 -52 -10 14 -36 243 -28 251 5 5 48 10 95 10 l86 1 31 59 c18 33 30 61 28
63 -2 3 -65 7 -140 11 l-136 7 -11 61 c-7 34 -14 75 -17 91 l-6 30 34 -32 c47
-45 61 -43 44 5 -25 68 -129 292 -136 292 -5 0 -20 -30 -34 -66 -18 -49 -23
-72 -16 -85 10 -18 50 -271 44 -278 -4 -5 -89 16 -249 61 -152 44 -218 46
-257 11 -33 -29 -72 -103 -61 -114 5 -5 63 -12 129 -14 107 -5 295 -37 317
-55 11 -9 -240 -106 -343 -131 -112 -28 -195 -22 -290 22 -38 17 -77 40 -86
50 -15 17 -13 19 33 42 26 13 65 30 86 36 39 13 71 58 78 111 4 23 -1 26 -96
53 -173 49 -405 48 -504 -3 -28 -14 -40 -29 -53 -68 -10 -27 -18 -52 -18 -55
0 -3 26 -3 58 0 64 6 110 -11 172 -63 l32 -28 -58 -29 c-32 -16 -87 -40 -121
-53 l-63 -24 -16 31 c-23 46 -90 115 -124 129 -90 37 -193 -65 -194 -193 -1
-54 1 -61 33 -89 l34 -31 119 5 c117 5 118 5 124 -18 10 -38 -3 -59 -84 -136
-139 -133 -310 -232 -424 -245 -110 -13 -203 49 -234 155 -20 66 -15 173 11
242 9 25 19 56 22 70 5 24 5 24 -10 5 -13 -16 -19 -18 -34 -9 -25 16 -27 57
-4 144 20 77 20 105 1 54 -42 -109 -50 -199 -21 -236 19 -24 19 -25 0 -98 -27
-102 -26 -241 2 -314 28 -75 91 -131 165 -146 74 -15 127 -6 245 44 14 6 13
-5 -9 -76 -34 -114 -36 -276 -5 -360 44 -119 119 -195 222 -225 84 -24 230
-14 351 26 160 52 415 192 518 285 l39 36 6 -76 c10 -111 68 -228 128 -260 85
-44 133 -2 209 183 77 186 128 253 196 253 27 0 40 -9 78 -52 25 -29 46 -55
46 -59 0 -15 83 -62 122 -70 66 -12 122 7 181 61 29 26 59 59 66 74 15 28 31
26 31 -4 0 -10 12 -32 26 -49 78 -93 238 -42 309 99 70 140 64 242 -60 955
-30 176 -55 324 -55 330 0 5 18 -9 40 -30 26 -25 40 -34 40 -24 0 29 -121 312
-138 323 -6 3 -22 -24 -38 -64z m-1510 -416 c25 -4 46 -9 46 -13 0 -3 -20 -14
-45 -25 l-45 -18 -35 26 c-19 15 -35 29 -35 32 0 6 60 5 114 -2z m-575 -198
c15 -8 33 -22 40 -30 12 -14 8 -16 -37 -16 -77 0 -101 17 -70 48 16 16 33 15
67 -2z"/>
<path d="M5997 2523 c-3 -5 -16 -35 -27 -67 -17 -45 -20 -63 -12 -84 6 -15 13
-49 17 -77 3 -27 28 -187 55 -355 67 -417 80 -513 94 -675 6 -78 16 -140 21
-140 19 0 44 129 44 232 1 113 -29 354 -84 672 -19 112 -35 211 -35 220 0 10
12 3 36 -23 19 -21 38 -36 41 -33 8 9 -15 72 -75 202 -59 128 -67 142 -75 128z"/>
<path d="M5365 2440 l-18 -60 31 -103 c61 -199 96 -405 147 -872 48 -447 93
-574 211 -599 39 -9 97 14 136 51 69 66 78 205 20 326 -17 38 -36 66 -41 63
-5 -3 -14 -34 -21 -69 -12 -63 -11 -64 19 -112 40 -62 40 -90 1 -110 -45 -23
-102 -19 -133 9 -62 58 -82 146 -136 597 -42 345 -77 576 -112 714 -22 88 -70
225 -80 225 -3 0 -14 -27 -24 -60z"/>
<path d="M3377 2439 c-23 -79 -23 -77 5 -164 39 -122 63 -234 52 -244 -5 -5
-39 -23 -76 -39 l-67 -30 -10 51 c-18 89 -31 170 -31 186 0 9 15 1 40 -24 33
-32 40 -36 40 -20 -1 28 -134 320 -145 318 -5 -1 -20 -30 -33 -64 -18 -48 -21
-68 -13 -84 6 -11 23 -105 39 -210 l29 -190 -49 -52 c-26 -28 -48 -57 -48 -63
0 -5 23 1 51 16 28 14 53 24 55 22 14 -15 120 -725 134 -903 6 -71 13 -132 16
-134 3 -3 9 1 14 9 13 21 40 178 40 230 0 77 -30 304 -75 575 -23 143 -40 263
-36 267 3 4 38 20 77 37 l72 29 16 -107 c10 -58 28 -203 41 -321 53 -465 69
-549 121 -651 55 -109 168 -120 251 -25 42 48 56 96 51 175 -5 66 -56 201 -76
201 -9 0 -32 -87 -32 -121 0 -11 11 -37 25 -58 38 -62 41 -86 12 -106 -71 -46
-142 -23 -182 60 -35 72 -51 159 -96 530 -21 181 -44 357 -49 389 -5 33 -8 62
-6 64 2 2 53 23 112 47 93 37 114 49 142 86 18 23 30 44 28 46 -2 2 -70 -20
-150 -50 -142 -53 -146 -54 -151 -33 -3 11 -14 64 -25 116 -22 101 -62 229
-84 269 -13 24 -14 23 -29 -30z"/>
<path d="M3898 2440 c-33 -78 -41 -111 -30 -134 6 -11 23 -100 37 -196 14 -96
46 -296 71 -444 36 -215 42 -271 32 -278 -7 -4 -55 -24 -106 -44 -121 -47
-127 -59 -26 -48 43 4 97 8 119 9 l40 0 17 -125 c9 -69 21 -181 27 -249 5 -68
13 -126 16 -129 12 -12 24 24 41 118 15 83 16 111 5 223 -6 71 -14 141 -17
156 -5 26 -3 27 53 39 110 22 344 180 422 285 53 71 64 114 59 238 -4 122 -30
191 -96 257 -84 84 -168 59 -233 -68 -33 -66 -32 -141 2 -175 29 -29 80 -44
152 -45 83 0 147 -42 131 -84 -8 -22 -167 -138 -270 -198 -85 -48 -235 -121
-239 -116 -1 2 -21 120 -45 263 -23 143 -52 315 -65 383 l-22 123 38 -37 c21
-21 42 -35 45 -31 9 9 -32 112 -95 242 l-48 100 -15 -35z m573 -437 c16 -10
29 -21 29 -25 0 -13 -108 -9 -116 4 -8 12 22 38 44 38 8 0 27 -8 43 -17z"/>
<path d="M4786 2447 c-9 -12 -20 -47 -26 -77 -23 -115 -18 -110 -51 -50 -41
75 -68 102 -99 98 -37 -4 -40 -49 -4 -77 15 -11 35 -21 45 -21 23 0 44 -31 65
-92 25 -77 34 -67 54 64 12 78 25 118 39 118 6 0 19 -9 30 -21 l19 -21 7 21
c9 31 -2 56 -31 69 -32 15 -31 16 -48 -11z"/>
<path d="M4931 2324 c-11 -24 -9 -31 20 -67 40 -50 58 -98 59 -162 l2 -50 13
30 c29 63 8 186 -41 245 -31 37 -37 37 -53 4z"/>
<path d="M5701 2174 c-10 -23 -8 -30 17 -62 45 -57 55 -82 62 -152 6 -64 7
-64 19 -35 28 65 1 194 -52 253 -26 28 -31 28 -46 -4z"/>
<path d="M4166 2063 c-14 -43 -30 -109 -37 -146 -10 -59 -9 -74 6 -113 14 -38
21 -44 46 -44 31 0 53 25 65 75 l7 30 -27 -25 c-21 -19 -31 -22 -44 -14 -35
22 -37 67 -7 190 15 63 25 118 22 120 -3 3 -16 -30 -31 -73z"/>
<path d="M346 2076 c-14 -19 -26 -37 -26 -39 0 -3 34 -8 75 -12 41 -4 77 -11
80 -15 2 -4 -28 -22 -68 -41 -57 -27 -67 -34 -48 -37 40 -6 114 18 144 46 35
33 60 79 53 97 -7 18 -70 35 -132 35 -47 0 -54 -3 -78 -34z"/>
<path d="M5112 1960 c-11 -30 -9 -42 14 -101 28 -71 27 -99 -4 -99 -34 0 -52
34 -61 111 -9 78 -18 109 -31 109 -13 0 -18 -49 -9 -88 14 -61 11 -100 -11
-122 -22 -22 -75 -27 -87 -7 -4 6 -10 52 -13 101 -6 98 -19 117 -45 65 -12
-22 -14 -34 -6 -42 6 -6 11 -27 11 -46 1 -140 81 -207 149 -124 25 31 31 34
37 19 6 -17 53 -46 74 -46 6 0 22 11 35 25 34 33 33 84 -4 177 -16 40 -31 80
-33 88 -3 9 -9 1 -16 -20z"/>
<path d="M3852 1859 c-27 -33 -40 -36 -57 -12 -12 15 -15 14 -45 -15 -21 -22
-41 -32 -61 -32 -29 0 -30 1 -23 35 9 48 -10 45 -36 -5 -22 -44 -26 -100 -8
-118 18 -18 69 -14 102 7 19 13 39 18 57 14 52 -10 109 55 109 126 0 38 -8 38
-38 0z"/>
<path d="M5902 1810 c-25 -34 -46 -38 -61 -12 -9 15 -13 14 -43 -15 -22 -22
-44 -33 -62 -33 -26 0 -28 3 -24 30 6 43 -8 47 -32 8 -29 -48 -34 -85 -16
-113 20 -31 68 -33 110 -6 19 13 39 18 55 15 49 -10 111 63 111 131 0 33 -11
32 -38 -5z"/>
<path d="M427 1823 c-13 -23 -48 -147 -58 -207 -18 -106 10 -176 65 -162 16 4
29 19 40 46 23 58 20 69 -10 37 -29 -32 -44 -31 -61 4 -18 34 -16 61 12 178
22 92 27 130 12 104z"/>
<path d="M1205 1699 c-41 -36 -65 -77 -57 -99 2 -8 13 -25 24 -37 20 -22 20
-22 -6 -55 -57 -76 -72 -155 -34 -182 29 -21 121 -21 181 0 48 16 144 93 117
93 -8 0 -40 -8 -70 -19 -63 -22 -179 -27 -198 -8 -7 7 -12 19 -12 28 0 23 106
122 157 148 27 14 42 29 45 47 6 30 -1 31 -47 4 -62 -37 -141 -6 -94 37 17 15
23 16 41 5 26 -16 41 -3 36 35 -4 42 -37 43 -83 3z"/>
<path d="M1781 1580 l-32 -59 23 -14 c126 -79 109 -80 153 5 l25 47 -63 37
c-34 20 -65 39 -68 40 -4 2 -21 -23 -38 -56z"/>
<path d="M5220 1585 c-31 -82 -22 -119 97 -367 112 -234 116 -269 37 -284 -56
-10 -102 4 -149 47 -56 52 -78 107 -116 286 -34 167 -95 330 -115 311 -3 -4
-12 -32 -19 -63 -13 -52 -12 -62 11 -138 54 -179 68 -310 40 -365 -35 -68
-115 -115 -194 -115 -131 0 -171 101 -138 348 19 145 20 166 3 189 -13 18 -15
17 -39 -9 -34 -36 -58 -111 -102 -318 -48 -222 -68 -259 -141 -259 -83 0 -135
113 -135 292 0 81 -13 105 -27 53 -5 -16 -8 -71 -7 -123 1 -191 78 -320 190
-320 31 0 46 6 66 28 37 37 43 57 79 254 29 162 59 258 80 258 5 0 7 -10 4
-22 -42 -197 -41 -322 3 -410 62 -122 206 -133 319 -23 42 41 55 62 72 119 12
37 21 80 21 95 1 16 10 -2 25 -47 28 -87 61 -140 111 -179 32 -24 47 -28 100
-28 53 0 67 4 89 25 37 35 62 86 74 157 16 83 4 129 -74 293 -35 74 -68 147
-74 162 -10 26 -9 27 14 18 16 -6 25 -6 25 1 0 10 -109 159 -116 159 -3 0 -9
-11 -14 -25z"/>
<path d="M5758 1561 c-16 -27 -28 -53 -28 -59 0 -14 120 -83 131 -76 9 5 59
97 59 108 0 6 -116 76 -126 76 -5 0 -21 -22 -36 -49z"/>
<path d="M3763 1541 l-33 -60 63 -37 c34 -20 65 -39 69 -41 4 -2 21 23 38 56
l30 61 -42 26 c-24 14 -53 32 -65 40 -12 8 -24 14 -25 14 -2 0 -18 -27 -35
-59z"/>
<path d="M4802 1447 c-31 -81 -54 -206 -47 -249 10 -55 35 -83 69 -74 27 7 56
54 56 93 0 14 -6 11 -24 -12 -20 -25 -28 -28 -43 -19 -36 22 -38 73 -9 194 15
62 25 114 23 117 -3 2 -14 -20 -25 -50z"/>
<path d="M2601 1433 c-17 -21 -31 -41 -31 -45 0 -5 30 -8 68 -9 111 -1 116
-10 28 -50 -83 -37 -97 -54 -38 -44 89 16 111 26 147 68 64 74 31 114 -97 116
-42 1 -50 -3 -77 -36z"/>
<path d="M2015 1352 c-92 -45 -130 -70 -163 -106 -24 -26 -42 -49 -40 -52 3
-2 73 31 157 74 118 60 157 84 173 110 28 45 14 42 -127 -26z"/>
<path d="M1076 1217 c-9 -12 -20 -47 -26 -77 -23 -115 -19 -111 -47 -55 -42
83 -92 127 -119 104 -34 -28 7 -99 57 -99 23 0 44 -31 65 -92 26 -78 36 -66
53 65 15 110 38 142 71 102 16 -19 30 -10 30 20 0 24 -33 55 -57 55 -7 0 -19
-10 -27 -23z"/>
<path d="M1346 1217 c-8 -12 -23 -39 -32 -60 -16 -34 -17 -40 -4 -48 8 -5 38
-22 67 -39 l52 -31 26 46 c15 25 28 53 29 62 0 9 -24 31 -61 54 l-63 39 -14
-23z"/>
<path d="M1915 1160 c-4 -6 -5 -35 -4 -65 2 -49 0 -57 -22 -72 -52 -35 -79
-67 -79 -95 0 -26 3 -28 38 -28 46 0 117 32 131 58 16 31 13 37 -8 18 -11 -10
-40 -24 -67 -32 -93 -28 -98 -14 -15 44 47 34 66 41 97 39 38 -2 39 -1 42 34
3 31 -2 41 -38 72 -40 37 -64 45 -75 27z m45 -71 c0 -15 -4 -19 -16 -15 -9 3
-18 6 -20 6 -2 0 -4 7 -4 15 0 8 9 15 20 15 14 0 20 -7 20 -21z m45 -9 c18
-20 11 -25 -19 -14 -17 6 -23 34 -8 34 5 0 17 -9 27 -20z"/>
<path d="M401 1062 c-15 -28 -41 -137 -41 -172 0 -83 62 -98 85 -20 8 25 8 25
-13 6 -18 -15 -24 -16 -37 -6 -19 16 -18 58 4 143 18 69 18 80 2 49z"/>
<path d="M6048 994 c-46 -25 -60 -123 -22 -155 12 -9 10 -16 -11 -41 -22 -26
-33 -58 -21 -58 3 0 24 13 48 28 24 16 68 39 98 51 59 24 80 44 80 73 0 18 -2
17 -40 -2 -49 -25 -91 -26 -120 -2 -34 27 -20 62 25 62 20 0 35 -6 39 -15 9
-24 33 -17 40 10 10 41 -9 65 -52 65 -20 -1 -49 -7 -64 -16z"/>
<path d="M4953 733 c-4 -10 -7 -41 -8 -69 0 -49 -2 -53 -42 -80 -57 -39 -82
-95 -47 -108 30 -11 108 14 142 47 43 41 41 52 -4 22 -37 -25 -88 -39 -121
-33 -13 2 -1 15 47 49 55 39 70 46 99 42 35 -6 51 6 51 39 0 22 -46 75 -81 94
-27 13 -30 13 -36 -3z m37 -58 c10 -12 9 -16 -5 -21 -19 -8 -40 9 -31 25 10
15 21 14 36 -4z m60 -36 c0 -4 -9 -5 -20 -2 -12 3 -20 14 -20 26 0 19 1 20 20
2 11 -10 20 -21 20 -26z"/>
<path d="M5507 706 c-53 -24 -117 -56 -141 -70 -43 -25 -104 -91 -94 -101 3
-3 70 27 150 67 114 56 150 79 167 106 12 19 21 36 19 38 -2 2 -48 -16 -101
-40z"/>
<path d="M2726 689 c-15 -27 -29 -49 -31 -49 -2 0 -30 16 -62 35 -32 19 -61
35 -65 35 -3 0 -21 -25 -39 -56 -26 -46 -29 -58 -18 -65 54 -36 120 -69 127
-65 5 3 17 23 27 46 10 22 22 40 26 40 4 0 34 -16 66 -35 32 -19 61 -35 65
-35 4 0 21 26 37 58 l29 58 -67 41 -68 40 -27 -48z"/>
<path d="M6110 684 c-110 -53 -200 -120 -200 -150 0 -7 68 23 152 65 121 61
156 84 171 109 26 45 13 42 -123 -24z"/>
<path d="M3274 718 c-46 -22 -66 -120 -32 -155 16 -15 15 -18 -7 -45 -25 -30
-33 -58 -16 -58 6 0 13 5 17 11 4 7 48 31 99 55 88 42 105 56 105 90 0 12 -8
10 -40 -6 -49 -25 -91 -26 -120 -2 -17 13 -21 24 -16 40 10 29 59 30 79 2 13
-19 16 -20 31 -5 52 52 -26 109 -100 73z"/>
<path d="M4025 713 c-32 -8 -64 -44 -71 -80 -7 -35 11 -93 28 -93 5 0 -2 -14
-16 -31 -14 -17 -26 -39 -26 -50 0 -19 2 -18 34 6 19 14 65 39 103 55 43 18
73 38 83 54 19 33 9 41 -29 22 -58 -30 -141 -14 -141 28 0 37 62 49 82 16 17
-27 27 -25 39 6 7 20 6 32 -6 50 -15 23 -36 28 -80 17z"/>
<path d="M2245 641 c-91 -44 -131 -70 -164 -106 -23 -25 -41 -48 -38 -51 2 -2
73 31 156 73 119 61 157 85 173 111 28 45 14 42 -127 -27z"/>
<path d="M3665 639 c-113 -56 -195 -119 -195 -149 0 -14 -15 -20 157 67 125
65 183 107 183 134 0 17 -26 8 -145 -52z"/>
<path d="M4458 633 c-96 -50 -140 -78 -162 -105 -16 -21 -27 -40 -25 -43 3 -3
73 30 155 72 113 57 154 84 172 109 33 50 14 45 -140 -33z"/>
<path d="M3847 253 c-12 -11 -8 -23 8 -23 8 0 15 7 15 15 0 16 -12 20 -23 8z"/>
<path d="M1234 220 c3 -16 9 -43 12 -60 7 -39 26 -38 43 3 l14 32 6 -29 c3
-16 11 -31 18 -33 12 -4 37 44 50 95 9 39 -18 22 -32 -19 l-12 -34 -7 38 c-8
45 -23 47 -40 7 -14 -33 -26 -30 -26 7 0 14 -6 23 -16 23 -12 0 -14 -7 -10
-30z"/>
<path d="M1826 234 c-3 -9 -6 -36 -6 -60 0 -38 3 -44 21 -44 15 0 19 4 15 16
-3 9 -6 36 -6 60 0 44 -12 58 -24 28z"/>
<path d="M2016 213 c-12 -74 -9 -83 24 -83 23 0 33 6 42 26 14 30 0 60 -26 58
-12 -1 -15 3 -11 17 4 13 2 19 -8 19 -9 0 -17 -14 -21 -37z m44 -38 c0 -14 -4
-25 -10 -25 -11 0 -14 33 -3 43 11 11 13 8 13 -18z"/>
<path d="M2187 199 c-4 -29 -4 -55 -2 -60 7 -11 98 -9 112 3 22 18 16 66 -9
74 -25 8 -58 -25 -58 -58 0 -11 -4 -16 -11 -12 -7 4 -9 24 -5 55 5 38 4 49 -7
49 -10 0 -16 -17 -20 -51z m93 -24 c0 -14 -4 -25 -10 -25 -11 0 -14 33 -3 43
11 11 13 8 13 -18z"/>
<path d="M2770 190 c-24 -48 -27 -60 -15 -60 9 0 18 7 21 15 4 8 15 15 25 15
10 0 19 -7 19 -15 0 -8 7 -15 15 -15 8 0 15 4 15 8 0 23 -32 112 -40 112 -5 0
-23 -27 -40 -60z m40 5 c0 -8 -4 -15 -10 -15 -5 0 -7 7 -4 15 4 8 8 15 10 15
2 0 4 -7 4 -15z"/>
<path d="M2868 210 c-1 -22 -2 -48 -2 -57 -1 -12 8 -19 24 -21 21 -3 22 -2 11
11 -8 11 -10 30 -6 61 6 39 5 46 -9 46 -12 0 -16 -11 -18 -40z"/>
<path d="M2926 234 c-3 -9 -6 -36 -6 -60 0 -38 3 -44 21 -44 15 0 19 4 15 16
-3 9 -6 36 -6 60 0 44 -12 58 -24 28z"/>
<path d="M3070 213 c0 -21 -3 -48 -6 -60 -5 -17 -2 -23 10 -23 10 0 16 9 16
24 0 14 5 28 10 31 6 4 10 -7 10 -24 0 -21 5 -31 16 -31 12 0 14 9 12 43 -2
33 -7 42 -20 41 -11 -1 -18 5 -18 17 0 11 -7 19 -15 19 -11 0 -15 -11 -15 -37z"/>
<path d="M3440 237 c0 -8 -11 -19 -25 -25 -25 -11 -42 -52 -31 -71 4 -6 22
-10 41 -9 34 1 35 2 35 44 0 23 3 49 6 58 4 11 1 16 -10 16 -9 0 -16 -6 -16
-13z m-10 -62 c0 -14 -4 -25 -10 -25 -11 0 -14 33 -3 43 11 11 13 8 13 -18z"/>
<path d="M3726 213 c-10 -61 -7 -83 9 -83 9 0 15 9 15 25 0 18 5 25 20 25 15
0 20 -7 20 -26 0 -16 5 -24 13 -22 7 3 13 27 15 61 3 58 -11 78 -22 32 -4 -16
-13 -25 -26 -25 -17 0 -19 5 -14 25 4 18 2 25 -9 25 -9 0 -17 -14 -21 -37z"/>
<path d="M4400 213 c0 -21 -3 -48 -6 -60 -5 -17 -2 -23 10 -23 10 0 16 9 16
24 0 14 5 28 10 31 6 4 10 -7 10 -24 0 -21 5 -31 16 -31 12 0 14 9 12 43 -2
33 -7 42 -20 41 -11 -1 -18 5 -18 17 0 11 -7 19 -15 19 -11 0 -15 -11 -15 -37z"/>
<path d="M4586 219 c-11 -58 -7 -89 12 -89 14 0 17 10 17 60 0 65 -18 83 -29
29z"/>
<path d="M4639 205 c-1 -25 -2 -51 -3 -57 -1 -7 9 -14 22 -16 12 -2 22 1 22 7
0 6 -5 11 -10 11 -7 0 -8 18 -4 50 6 42 4 50 -10 50 -12 0 -16 -11 -17 -45z"/>
<path d="M2569 225 c-9 -10 -13 -28 -11 -55 4 -34 7 -40 28 -40 13 0 24 5 24
10 0 6 -4 10 -10 10 -14 0 -13 37 1 42 7 2 9 13 5 26 -9 26 -16 27 -37 7z"/>
<path d="M3538 226 c-13 -9 -15 -22 -11 -54 5 -36 9 -42 29 -42 13 0 24 5 24
10 0 6 -4 10 -10 10 -14 0 -13 33 1 47 19 19 -12 44 -33 29z"/>
<path d="M4890 225 c-7 -9 -21 -13 -31 -10 -22 7 -54 -9 -63 -31 -12 -31 3
-54 35 -54 34 0 40 20 7 21 l-23 0 22 9 c12 5 26 17 32 27 11 18 12 16 14 -27
2 -18 9 -26 25 -28 12 -2 22 1 22 7 0 6 -4 11 -10 11 -14 0 -13 37 1 42 7 2 9
13 5 26 -9 26 -19 28 -36 7z m-50 -35 c0 -5 -5 -10 -11 -10 -5 0 -7 5 -4 10 3
6 8 10 11 10 2 0 4 -4 4 -10z"/>
<path d="M1396 207 c-12 -9 -17 -23 -14 -42 2 -24 8 -31 31 -33 15 -2 27 1 27
7 0 6 -7 11 -16 11 -13 0 -11 4 7 18 40 33 7 70 -35 39z"/>
<path d="M1513 204 c-3 -9 -1 -25 6 -35 9 -15 8 -19 -4 -19 -8 0 -15 -4 -15
-10 0 -5 11 -10 25 -10 28 0 44 25 26 43 -13 13 -15 28 -2 25 5 -2 11 2 13 7
6 18 -42 18 -49 -1z"/>
<path d="M1587 213 c-4 -3 -7 -23 -7 -44 0 -37 1 -38 38 -37 37 0 37 1 37 41
0 23 -6 42 -13 45 -7 2 -12 -6 -12 -20 0 -12 -5 -30 -10 -38 -7 -11 -10 -5
-10 23 0 35 -8 46 -23 30z"/>
<path d="M1700 210 c-21 -4 -25 -11 -26 -42 -1 -26 3 -38 12 -38 8 0 14 9 14
19 0 11 7 27 16 35 21 22 14 33 -16 26z"/>
<path d="M1745 196 c-24 -36 -12 -66 26 -66 16 0 29 5 29 10 0 6 -10 10 -22
10 -23 0 -22 1 2 13 32 16 33 51 3 55 -14 2 -27 -5 -38 -22z m35 -6 c0 -5 -5
-10 -11 -10 -5 0 -7 5 -4 10 3 6 8 10 11 10 2 0 4 -4 4 -10z"/>
<path d="M1876 185 c-8 -42 -2 -55 25 -55 10 0 19 -5 19 -11 0 -6 -9 -8 -20
-4 -14 5 -20 2 -20 -9 0 -19 40 -22 58 -4 17 17 16 121 0 116 -7 -3 -14 -19
-16 -36 -4 -43 -22 -41 -22 3 0 45 -16 45 -24 0z"/>
<path d="M2116 204 c-10 -9 -16 -28 -14 -43 2 -21 9 -27 36 -29 18 -2 32 1 32
7 0 6 -10 11 -22 12 l-23 0 23 11 c15 8 22 19 20 32 -4 27 -31 32 -52 10z"/>
<path d="M2335 211 c-9 -8 -5 -81 4 -81 5 0 12 13 16 30 4 17 11 30 17 30 5 0
7 -12 3 -30 -5 -23 -3 -30 8 -30 18 0 29 68 13 78 -13 8 -55 10 -61 3z"/>
<path d="M2438 209 c-12 -6 -18 -22 -18 -46 0 -32 2 -35 25 -30 16 3 24 0 22
-7 -2 -6 -12 -11 -23 -11 -27 0 -24 -19 5 -23 33 -5 45 11 47 65 2 59 -17 76
-58 52z m23 -46 c-10 -17 -10 -16 -11 3 0 23 13 41 18 25 2 -6 -1 -18 -7 -28z"/>
<path d="M2636 207 c-12 -9 -17 -23 -14 -42 2 -24 8 -31 30 -33 22 -3 30 2 40
23 20 45 -17 81 -56 52z m34 -31 c0 -8 -4 -18 -10 -21 -5 -3 -10 3 -10 14 0
12 5 21 10 21 6 0 10 -6 10 -14z"/>
<path d="M2985 204 c-9 -9 -15 -28 -13 -43 3 -22 9 -26 39 -29 34 -3 35 -2 36
35 2 52 -29 70 -62 37z m26 -47 c-8 -8 -11 -5 -11 9 0 27 14 41 18 19 2 -9 -1
-22 -7 -28z"/>
<path d="M3215 204 c-9 -9 -15 -28 -13 -43 3 -22 9 -26 39 -29 34 -3 35 -2 36
35 2 52 -29 70 -62 37z m26 -47 c-8 -8 -11 -5 -11 9 0 27 14 41 18 19 2 -9 -1
-22 -7 -28z"/>
<path d="M3296 210 c-2 -3 -4 -22 -5 -42 -1 -28 2 -38 14 -38 9 0 15 9 15 23
0 12 5 29 10 37 7 11 10 5 10 -22 0 -28 4 -38 16 -38 12 0 14 9 12 43 -3 40
-4 42 -36 42 -19 0 -35 -2 -36 -5z"/>
<path d="M3594 195 c-22 -34 -10 -65 26 -65 29 0 40 15 40 55 0 21 -17 35 -41
35 -5 0 -16 -11 -25 -25z m36 -20 c0 -14 -4 -25 -10 -25 -11 0 -14 33 -3 43
11 11 13 8 13 -18z"/>
<path d="M3839 191 c-1 -17 -2 -37 -3 -43 -1 -7 6 -14 15 -16 12 -2 15 6 15
39 -1 50 -25 67 -27 20z"/>
<path d="M3894 211 c-8 -8 -4 -81 5 -81 4 0 13 15 19 33 l10 32 1 -32 c1 -44
31 -46 31 -3 0 17 5 30 11 30 7 0 9 -11 6 -30 -5 -22 -3 -30 7 -30 14 0 27 55
19 76 -4 11 -99 15 -109 5z"/>
<path d="M4068 183 c-3 -21 -3 -41 -1 -45 7 -13 90 -9 101 5 16 19 19 70 5 74
-8 3 -13 -4 -13 -19 0 -12 -5 -30 -10 -38 -7 -11 -10 -5 -10 23 0 48 -23 46
-28 -1 -2 -18 -8 -32 -13 -32 -6 0 -9 14 -7 32 4 45 -19 47 -24 1z"/>
<path d="M4211 201 c-22 -22 -24 -30 -15 -55 7 -18 64 -23 64 -6 0 6 -10 10
-22 10 -23 0 -22 1 2 13 28 14 34 50 8 55 -9 2 -26 -6 -37 -17z m29 -11 c0 -5
-5 -10 -11 -10 -5 0 -7 5 -4 10 3 6 8 10 11 10 2 0 4 -4 4 -10z"/>
<path d="M4330 205 c-11 -13 -10 -19 5 -35 16 -18 16 -20 2 -20 -10 0 -17 -4
-17 -10 0 -5 11 -10 25 -10 32 0 45 28 22 45 -22 16 -22 26 -1 18 12 -4 15 -2
12 8 -7 20 -33 22 -48 4z"/>
<path d="M4501 201 c-37 -37 -23 -70 27 -69 32 1 33 2 30 42 -4 48 -26 58 -57
27z m32 -31 c-3 -11 -9 -20 -14 -20 -10 0 -11 12 -3 34 9 22 23 10 17 -14z"/>
<path d="M4760 210 c-21 -4 -25 -11 -25 -43 0 -23 5 -37 13 -37 6 0 12 9 12
19 0 11 7 27 16 35 21 22 14 33 -16 26z"/>
<path d="M4947 184 c-8 -48 -4 -54 38 -52 34 1 35 2 35 45 0 23 -4 43 -9 43
-11 0 -21 -25 -21 -51 0 -10 -5 -19 -11 -19 -6 0 -9 14 -7 32 4 45 -18 47 -25
2z"/>
<path d="M5044 211 c-2 -2 -4 -22 -4 -43 0 -27 4 -38 15 -38 9 0 15 9 15 25 0
14 7 28 15 31 25 10 17 32 -11 30 -14 0 -28 -3 -30 -5z"/>
<path d="M5114 211 c-2 -2 -4 -22 -4 -43 0 -27 4 -38 15 -38 10 0 15 10 15 29
0 17 5 33 10 36 6 4 10 -8 10 -29 0 -20 4 -36 10 -36 11 0 24 65 16 79 -6 9
-63 11 -72 2z"/>
</g>
</svg>
